<?xml version="1.0" encoding="utf-8"?>
<!-- Generator: Adobe Illustrator 22.1.0, SVG Export Plug-In . SVG Version: 6.00 Build 0)  -->
<svg version="1.1" id="Calque_1" xmlns="http://www.w3.org/2000/svg" xmlns:xlink="http://www.w3.org/1999/xlink" x="0px" y="0px"
	 viewBox="0 0 500 500" style="enable-background:new 0 0 500 500;" xml:space="preserve">
<style type="text/css">
	.st0{fill:#44C5CB;}
	.st1{fill-rule:evenodd;clip-rule:evenodd;fill:#FFDECC;}
	.st2{fill-rule:evenodd;clip-rule:evenodd;fill:#CDEFF1;}
	.st3{fill-rule:evenodd;clip-rule:evenodd;fill:#F6D1AF;}
	.st4{opacity:0.2;}
	.st5{fill:#343434;}
	.st6{opacity:0.1;fill-rule:evenodd;clip-rule:evenodd;}
</style>
<g>
	<path class="st0" d="M495,250c0,68.8-28.4,131-74,175.5c-0.9,0.9-1.9,1.8-2.9,2.7C392.9,452,362.6,470.6,329,482
		c-24.8,8.4-51.4,13-79,13c-27.6,0-54.2-4.6-79-13c-33.6-11.5-64-30-89.3-53.9c-0.7-0.6-1.3-1.3-2-1.9C33.7,381.6,5,319.1,5,250
		C5,114.7,114.7,5,250,5C385.3,5,495,114.7,495,250z"/>
	<g>
		<path class="st1" d="M418.1,428.2C392.9,452,362.6,470.6,329,482H171c-33.6-11.5-64-30-89.3-53.9c1.9-7.7,3.8-14.9,5.9-21.3
			c3.8-11.8,8.2-21,13.3-25.8c0.1-0.1,0.2-0.2,0.4-0.3c9.3-8.2,32.5-26.3,109-60.1c0.3-0.1,0.7-0.3,1-0.5v0c0.9-0.4,1.8-0.8,2.6-1.2
			l36.4,0.2c0.2,0,0.5,0,0.7,0l35.6,0.2c0.6,0.3,1.2,0.5,1.8,0.8c78,34.3,100.7,52.2,110,60.5c0.1,0.1,0.2,0.2,0.4,0.3
			c4.3,3.9,7.9,10.9,11.3,19.8C413,408.7,415.7,418.1,418.1,428.2z"/>
		<path class="st2" d="M421,425.5c-0.9,0.9-1.9,1.8-2.9,2.7C392.9,452,362.6,470.6,329,482c-24.8,8.4-51.4,13-79,13
			c-27.6,0-54.2-4.6-79-13c-33.6-11.5-64-30-89.3-53.9c-0.7-0.6-1.3-1.3-2-1.9c2.8-7.1,5.4-13.7,7.9-19.4
			c5.7-13.5,10.4-22.8,13.3-25.8c0.1-0.1,0.2-0.2,0.4-0.3c9.3-8.2,32.5-26.3,109-60.1c0.3-0.2,0.7-0.3,1-0.5
			c0.9-0.4,1.8-0.8,2.6-1.2l36.4,0.2c0.2,0,0.5,0,0.7,0l35.6,0.2c0.6,0.3,1.2,0.5,1.8,0.8c78,34.3,100.7,52.2,110,60.5
			c0.1,0.1,0.2,0.2,0.4,0.3c2.5,2.5,6.4,9.6,11.3,19.8C413.4,407.7,417,416.1,421,425.5z"/>
		<path class="st3" d="M211.3,249.5v58.9v29.1c21.2,25.1,55.9,26,77.1,0v-29.1v-58.9C288.5,202,211.3,202,211.3,249.5z"/>
		<path class="st3" d="M169.5,194.2c6.8-2.2,15.4,5.5,19.3,17.2c3.9,11.7,1.5,23.1-5.3,25.3c-6.8,2.2-15.4-5.5-19.3-17.2
			C160.3,207.7,162.7,196.4,169.5,194.2z"/>
		<path class="st3" d="M330,194.2c-6.8-2.2-15.4,5.5-19.3,17.2c-3.9,11.7-1.5,23.1,5.3,25.3c6.8,2.2,15.4-5.5,19.3-17.2
			C339.1,207.7,336.8,196.4,330,194.2z"/>
		<path class="st4" d="M211.3,292.1v2.8c0,0,19.7,23.4,38.5,24.2c18.8,0.8,38.6-22.6,38.6-22.6v-4.3L211.3,292.1z"/>
		<g>
			<path class="st3" d="M250,91.5c-118.6,0-73.2,162.5-65.4,175c8.5,13.7,46.3,44,65.4,44c19.2,0,56.9-30.3,65.4-44
				C323.1,254,368.6,91.5,250,91.5z"/>
			<path class="st5" d="M303.2,95.2c-36.7-28.9-91.7-15.5-115,7.1c-2.1,2.1-4,4.2-5.6,6.4c-12.1,17-15.7,38.5-15.6,60.5
				c0,8.5,0.6,17,1.5,25.4c1.2,12,3,23.8,4.6,34.5v-0.2c0.1,0.4,0.1,0.8,0.2,1.2c0.1,0.3,0.7,1.2,0.9,1.4c0,0.1,0.1,0.1,0.3,0.1
				c0.5,0.1,1.5-0.2,1.9-0.4c0.2-0.1,0.3-0.3,0.3-0.5c0.2-3.3,0-9.9,0-9.9c-0.4-5.2-1.6-10.1-2.3-15.2c0.6-4,1.5-7.5,2.5-10.6
				c2.5-7.8,5.9-13.5,9.2-20.4c3.3-6.7,6.6-14.4,9-26.2c1.2-1.9,2.5-3.8,3.9-5.6c1.6-2.1,3.2-4.1,5.2-5.8c1-0.6,2-1.3,2.9-2
				c18.5-6.8,37.5-0.8,55.3,6.3c3,1.2,5.9,2.4,8.8,3.6c7.8,3.2,8.9-10.6,17.5-11.3c3.7-0.3,11.3,12.1,14.3,11.8
				c24.5-2.9,21.1,26.3,21.3,49c0,5.6,0.3,10.9,1.2,15.1c-0.6,3.7-1.4,7.4-1.7,11.2c0,0.1-0.2,6.6,0,9.9c0,0.2,0.1,0.4,0.3,0.5
				c0.3,0.2,1,0.4,1.6,0.4c0.3,0,0.5,0,0.5-0.1c0.1-0.2,0.8-1.1,0.9-1.4c0.4-1.4,0.4-2.6,0.5-4.1c0.3-1.9,0.6-3.9,0.8-5.9
				c1.4-5.2,3.1-14,4.3-24.5C336.9,159.7,336.2,103,303.2,95.2z M242.5,126.2c-0.7-0.2-1.3-0.4-2-0.6c1,0.2,2,0.5,3,0.8
				C243.1,126.4,242.8,126.3,242.5,126.2z"/>
		</g>
		<polygon class="st6" points="242.7,389 257.1,389 257.2,389.5 242.6,389.5 		"/>
		<path class="st5" d="M272.9,106.2c0,0-34.5-24.1-65.4-11.1s-58,17.9-64.8,9.3c0,0-19.1,40.1,16.7,61.1s76.5,4.3,88.2-8.6
			c11.7-13,30.8-33.9,41.3-29.6C299.4,131.5,272.9,106.2,272.9,106.2z"/>
	</g>
</g>
</svg>
