<?xml version="1.0" encoding="iso-8859-1"?>
<!-- Generator: Adobe Illustrator 19.0.0, SVG Export Plug-In . SVG Version: 6.00 Build 0)  -->
<svg version="1.1" id="Capa_1" xmlns="http://www.w3.org/2000/svg" xmlns:xlink="http://www.w3.org/1999/xlink" x="0px" y="0px"
	 viewBox="0 0 512 512" style="enable-background:new 0 0 512 512;" xml:space="preserve">
<circle style="fill:#FEB756;" cx="403.72" cy="402.51" r="19"/>
<polygon style="fill:#44C5CB;" points="417.452,416.245 331.961,501.736 312.788,482.563 360.06,418.709 386.009,410.294 "/>
<polygon style="fill:#8CCEEA;" points="390.584,388.185 474.536,304.233 493.709,323.406 446.437,387.26 421.897,395.218 "/>
<circle style="fill:#FEB756;" cx="110.69" cy="109.49" r="19"/>
<polygon style="fill:#44C5CB;" points="124.426,123.219 38.935,208.71 19.762,189.537 67.034,125.683 92.983,117.268 "/>
<polygon style="fill:#8CCEEA;" points="97.558,95.159 181.51,11.207 200.683,30.38 153.411,94.234 128.871,102.192 "/>
<circle style="fill:#FEB756;" cx="402.78" cy="109.49" r="19"/>
<polygon style="fill:#44C5CB;" points="416.509,95.755 502,181.246 482.827,200.419 418.973,153.147 410.558,127.198 "/>
<polygon style="fill:#8CCEEA;" points="388.449,122.623 304.497,38.671 323.67,19.498 387.524,66.77 395.482,91.31 "/>
<circle style="fill:#FEB756;" cx="109.75" cy="402.51" r="19"/>
<polygon style="fill:#44C5CB;" points="123.483,388.781 208.974,474.272 189.801,493.445 125.947,446.173 117.532,420.224 "/>
<polygon style="fill:#8CCEEA;" points="95.423,415.649 11.471,331.697 30.644,312.524 94.498,359.796 102.456,384.336 "/>
<path style="fill:#CDEFF1;" d="M108.636,138.141l45.838,46.437c39.288,39.52,39.288,103.348,0,142.867l-45.736,46.335l29.505,29.505
	l46.334-45.736c39.52-39.288,103.348-39.288,142.867,0l46.517,45.918l29.505-29.505l-45.918-46.517
	c-39.288-39.52-39.288-103.348,0-142.867l45.838-46.437l-29.505-29.505l-46.437,45.838c-39.52,39.288-103.348,39.288-142.867,0
	l-46.437-45.838L108.636,138.141z"/>
<circle style="fill:#F25353;" cx="256" cy="256" r="36"/>
<path d="M407.018,148.699l2.443,7.533c0.643,1.981,1.888,3.713,3.562,4.952l63.854,47.272c1.779,1.317,3.868,1.963,5.947,1.963
	c2.575,0,5.137-0.991,7.074-2.929l19.173-19.173c3.905-3.905,3.905-10.237,0-14.143L423.58,88.683
	c-0.868-0.868-1.86-1.532-2.915-2.014c-5.311-4.169-11.749-6.225-18.174-6.162l-5.456-16.823c-0.643-1.981-1.888-3.713-3.562-4.952
	L329.62,11.461c-3.981-2.948-9.519-2.537-13.021,0.966L297.425,31.6c-1.875,1.875-2.929,4.419-2.929,7.071s1.054,5.196,2.929,7.071
	l83.953,83.952c0.784,0.785,1.67,1.404,2.611,1.873c2.252,1.919,4.729,3.437,7.34,4.556l-40.871,41.405
	c-20.876,21-32.374,48.873-32.374,78.484s11.498,57.484,32.349,78.458l39.135,39.645l-7.262,7.263
	c-0.784,0.784-1.404,1.669-1.873,2.61c-1.915,2.248-3.432,4.719-4.549,7.324l-41.388-40.855c-21-20.876-48.873-32.374-78.484-32.374
	s-57.484,11.498-78.484,32.374c-3.917,3.894-3.935,10.225-0.042,14.142c3.894,3.916,10.226,3.935,14.142,0.042
	c35.501-35.292,93.265-35.293,128.792,0.025l42.898,42.346l-7.551,2.449c-1.981,0.643-3.713,1.888-4.952,3.562l-47.272,63.854
	c-2.947,3.981-2.536,9.519,0.966,13.021l19.173,19.173c1.953,1.953,4.512,2.929,7.071,2.929s5.119-0.976,7.071-2.929l85.491-85.491
	c0.868-0.868,1.532-1.86,2.014-2.915c4.169-5.311,6.225-11.749,6.162-18.174l16.823-5.456c1.981-0.643,3.713-1.888,4.952-3.562
	l47.272-63.854c2.947-3.981,2.536-9.519-0.966-13.021l-19.173-19.173c-1.875-1.875-4.419-2.929-7.071-2.929
	s-5.196,1.054-7.071,2.929l-62.548,62.548l-39.069-39.578c-35.292-35.501-35.292-93.266,0.025-128.792L407.018,148.699z
	 M409.141,115.851c-1.7,1.7-3.959,2.636-6.364,2.636c-2.404,0-4.664-0.936-6.364-2.636c-1.7-1.7-2.636-3.96-2.636-6.364
	s0.937-4.664,2.637-6.364c1.7-1.7,3.959-2.636,6.363-2.636s4.664,0.936,6.364,2.636C412.65,106.632,412.65,112.342,409.141,115.851z
	 M481.85,187.254l-54.353-40.238l-5.213-16.073c0.338-0.308,0.672-0.622,0.999-0.949c2.331-2.332,4.174-4.968,5.544-7.778
	l59.03,59.031L481.85,187.254z M324.647,32.663l54.352,40.238l4.766,14.697c-0.509,0.443-1.01,0.898-1.495,1.382
	c-2.302,2.303-4.164,4.927-5.555,7.767L318.638,38.67L324.647,32.663z M411.513,402.777c0,2.404-0.936,4.664-2.636,6.364
	c-3.51,3.51-9.22,3.509-12.728,0c-1.7-1.7-2.636-3.959-2.636-6.364c0-2.404,0.936-4.664,2.636-6.364c1.7-1.7,3.96-2.636,6.364-2.636
	s4.664,0.937,6.364,2.637C410.577,398.114,411.513,400.373,411.513,402.777z M330.754,487.858l-6.007-6.008l40.238-54.353
	l16.073-5.213c0.308,0.338,0.622,0.672,0.949,0.998c2.332,2.332,4.968,4.174,7.778,5.544L330.754,487.858z M473.329,318.639
	l6.008,6.008l-40.238,54.352l-14.697,4.766c-0.443-0.509-0.898-1.01-1.382-1.495c-2.303-2.302-4.927-4.164-7.767-5.555
	L473.329,318.639z"/>
<path d="M130.622,382.306c-0.785-0.785-1.67-1.404-2.611-1.873c-2.242-1.91-4.707-3.424-7.305-4.54l40.861-41.396
	c20.877-21,32.374-48.873,32.374-78.484s-11.497-57.484-32.349-78.458l-39.158-39.67l7.262-7.262
	c0.784-0.784,1.404-1.669,1.873-2.61c1.915-2.248,3.431-4.719,4.549-7.323l41.412,40.878c21,20.877,48.873,32.374,78.484,32.374
	s57.484-11.497,78.484-32.374c3.917-3.894,3.935-10.226,0.042-14.142c-3.895-3.917-10.226-3.936-14.142-0.042
	c-35.5,35.293-93.264,35.294-128.792-0.025l-42.923-42.369l7.552-2.449c1.981-0.643,3.713-1.888,4.952-3.562l47.272-63.854
	c2.947-3.981,2.536-9.519-0.966-13.021L188.318,2.929c-3.905-3.905-10.237-3.905-14.143,0L88.684,88.42
	c-0.868,0.868-1.532,1.86-2.014,2.915c-4.169,5.311-6.225,11.749-6.162,18.174l-16.823,5.456c-1.981,0.643-3.713,1.888-4.952,3.562
	L11.461,182.38c-2.947,3.981-2.536,9.519,0.966,13.021L31.6,214.575c1.875,1.875,4.419,2.929,7.071,2.929s5.196-1.054,7.071-2.929
	l62.548-62.549l39.092,39.603c35.293,35.501,35.293,93.266-0.025,128.792l-42.363,42.918l-2.455-7.571
	c-0.643-1.981-1.888-3.713-3.562-4.952l-63.854-47.272c-3.981-2.948-9.52-2.536-13.021,0.966L2.929,323.683
	c-3.905,3.905-3.905,10.237,0,14.143l85.491,85.491c0.868,0.868,1.861,1.532,2.915,2.014c5.232,4.107,11.558,6.169,17.888,6.169
	c0.095,0,0.191-0.006,0.286-0.007l5.456,16.823c0.643,1.981,1.888,3.713,3.562,4.952l63.854,47.272
	c1.779,1.317,3.867,1.963,5.947,1.963c2.575,0,5.137-0.991,7.074-2.929l19.173-19.173c1.875-1.875,2.929-4.419,2.929-7.071
	s-1.054-5.196-2.929-7.071L130.622,382.306z M100.487,109.223c0-2.404,0.936-4.664,2.636-6.364c1.755-1.755,4.06-2.632,6.364-2.632
	s4.61,0.877,6.364,2.632c1.7,1.7,2.636,3.959,2.636,6.364c0,2.404-0.936,4.664-2.636,6.364c-1.7,1.7-3.96,2.636-6.364,2.636
	s-4.664-0.937-6.364-2.637C101.423,113.887,100.487,111.627,100.487,109.223z M181.246,24.142l6.007,6.008l-40.238,54.353
	l-16.073,5.213c-0.308-0.338-0.622-0.672-0.949-0.998c-2.332-2.331-4.968-4.174-7.778-5.544L181.246,24.142z M38.671,193.362
	l-6.008-6.008l40.238-54.352l14.697-4.766c0.443,0.509,0.898,1.01,1.382,1.495c2.303,2.302,4.927,4.164,7.767,5.555L38.671,193.362z
	 M102.859,396.15c1.7-1.7,3.959-2.636,6.364-2.636c2.404,0,4.664,0.936,6.364,2.636c1.7,1.7,2.636,3.96,2.636,6.364
	s-0.937,4.664-2.637,6.364c-1.7,1.7-3.959,2.636-6.363,2.636s-4.664-0.936-6.364-2.636C99.35,405.368,99.35,399.658,102.859,396.15z
	 M30.15,324.747l54.353,40.238l5.213,16.073c-0.338,0.308-0.672,0.622-0.998,0.949c-2.331,2.332-4.174,4.968-5.544,7.778
	l-59.03-59.031L30.15,324.747z M187.353,479.337l-54.352-40.238l-4.766-14.697c0.509-0.443,1.01-0.898,1.495-1.382
	c2.302-2.303,4.164-4.927,5.555-7.767l58.077,58.077L187.353,479.337z"/>
<path d="M210,256c0,25.364,20.636,46,46,46s46-20.636,46-46s-20.636-46-46-46S210,230.636,210,256z M282,256
	c0,14.336-11.664,26-26,26s-26-11.664-26-26s11.664-26,26-26S282,241.664,282,256z"/>
<path d="M350.095,142.424c2.559,0,5.119-0.976,7.071-2.929c3.905-3.905,3.905-10.237,0-14.143l-0.299-0.299
	c-3.905-3.905-10.237-3.905-14.143,0c-3.906,3.905-3.905,10.237,0,14.143l0.299,0.299
	C344.976,141.448,347.536,142.424,350.095,142.424z"/>
<path d="M154.786,372.601c-3.905,3.905-3.905,10.237,0,14.143l0.299,0.299c1.953,1.953,4.512,2.929,7.071,2.929
	s5.119-0.976,7.071-2.929c3.905-3.905,3.905-10.237,0-14.143l-0.299-0.299C165.023,368.696,158.691,368.696,154.786,372.601z"/>
<g>
</g>
<g>
</g>
<g>
</g>
<g>
</g>
<g>
</g>
<g>
</g>
<g>
</g>
<g>
</g>
<g>
</g>
<g>
</g>
<g>
</g>
<g>
</g>
<g>
</g>
<g>
</g>
<g>
</g>
</svg>
