<?xml version="1.0" encoding="utf-8"?>
<!-- Generator: Adobe Illustrator 22.1.0, SVG Export Plug-In . SVG Version: 6.00 Build 0)  -->
<svg version="1.1" id="Capa_1" xmlns="http://www.w3.org/2000/svg" xmlns:xlink="http://www.w3.org/1999/xlink" x="0px" y="0px"
	 viewBox="0 0 2119.7 512" style="enable-background:new 0 0 2119.7 512;" xml:space="preserve">
<style type="text/css">
	.st0{fill:#FEB756;}
	.st1{fill:#44C5CB;}
	.st2{fill:#8CCEEA;}
	.st3{fill:#CDEFF1;}
	.st4{fill:#F25353;}
</style>
<g>
	<circle class="st0" cx="404.4" cy="402.4" r="19"/>
	<polygon class="st1" points="418.1,416.1 332.7,501.5 313.5,482.3 360.7,418.6 386.7,410.1 	"/>
	<polygon class="st2" points="391.2,388.1 475.1,304.2 494.3,323.3 447,387.1 422.5,395.1 	"/>
	<circle class="st0" cx="111.6" cy="109.6" r="19"/>
	<polygon class="st1" points="125.3,123.3 39.9,208.8 20.8,189.6 68,125.8 93.9,117.4 	"/>
	<polygon class="st2" points="98.5,95.3 182.4,11.4 201.5,30.6 154.3,94.4 129.8,102.3 	"/>
	<circle class="st0" cx="403.4" cy="109.6" r="19"/>
	<polygon class="st1" points="417.1,95.9 502.5,181.3 483.4,200.5 419.6,153.2 411.2,127.3 	"/>
	<polygon class="st2" points="389.1,122.8 305.2,38.9 324.4,19.7 388.2,67 396.1,91.5 	"/>
	<circle class="st0" cx="110.7" cy="402.4" r="19"/>
	<polygon class="st1" points="124.4,388.7 209.8,474.1 190.6,493.2 126.8,446 118.4,420.1 	"/>
	<polygon class="st2" points="96.4,415.5 12.5,331.6 31.6,312.5 95.4,359.7 103.4,384.2 	"/>
	<path class="st3" d="M109.6,138.3l45.8,46.4c39.2,39.5,39.2,103.2,0,142.7l-45.7,46.3l29.5,29.5l46.3-45.7
		c39.5-39.2,103.2-39.2,142.7,0l46.5,45.9l29.5-29.5l-45.9-46.5c-39.2-39.5-39.2-103.2,0-142.7l45.8-46.4l-29.5-29.5l-46.4,45.8
		c-39.5,39.2-103.2,39.2-142.7,0L139,108.8L109.6,138.3z"/>
	<circle class="st4" cx="256.8" cy="256" r="36"/>
	<path d="M407.6,148.8l2.4,7.5c0.6,2,1.9,3.7,3.6,4.9l63.8,47.2c1.8,1.3,3.9,2,5.9,2c2.6,0,5.1-1,7.1-2.9l19.2-19.2
		c3.9-3.9,3.9-10.2,0-14.1l-85.4-85.4c-0.9-0.9-1.9-1.5-2.9-2c-5.3-4.2-11.7-6.2-18.2-6.2l-5.5-16.8c-0.6-2-1.9-3.7-3.6-4.9
		l-63.8-47.2c-4-2.9-9.5-2.5-13,1l-19.2,19.2c-1.9,1.9-2.9,4.4-2.9,7.1s1.1,5.2,2.9,7.1l83.9,83.9c0.8,0.8,1.7,1.4,2.6,1.9
		c2.2,1.9,4.7,3.4,7.3,4.6l-40.8,41.4c-20.9,21-32.3,48.8-32.3,78.4s11.5,57.4,32.3,78.4l39.1,39.6l-7.3,7.3
		c-0.8,0.8-1.4,1.7-1.9,2.6c-1.9,2.2-3.4,4.7-4.5,7.3l-41.3-40.8c-21-20.9-48.8-32.3-78.4-32.3s-57.4,11.5-78.4,32.3
		c-3.9,3.9-3.9,10.2,0,14.1c3.9,3.9,10.2,3.9,14.1,0c35.5-35.3,93.2-35.3,128.7,0l42.9,42.3l-7.5,2.4c-2,0.6-3.7,1.9-4.9,3.6
		l-47.2,63.8c-2.9,4-2.5,9.5,1,13l19.2,19.2c2,2,4.5,2.9,7.1,2.9c2.6,0,5.1-1,7.1-2.9l85.4-85.4c0.9-0.9,1.5-1.9,2-2.9
		c4.2-5.3,6.2-11.7,6.2-18.2l16.8-5.5c2-0.6,3.7-1.9,4.9-3.6l47.2-63.8c2.9-4,2.5-9.5-1-13L481,297.4c-1.9-1.9-4.4-2.9-7.1-2.9
		c-2.6,0-5.2,1.1-7.1,2.9l-62.5,62.5l-39-39.5c-35.3-35.5-35.3-93.2,0-128.7L407.6,148.8z M409.8,116c-1.7,1.7-4,2.6-6.4,2.6
		c-2.4,0-4.7-0.9-6.4-2.6c-1.7-1.7-2.6-4-2.6-6.4s0.9-4.7,2.6-6.4c1.7-1.7,4-2.6,6.4-2.6c2.4,0,4.7,0.9,6.4,2.6
		C413.3,106.8,413.3,112.5,409.8,116z M482.4,187.3l-54.3-40.2l-5.2-16.1c0.3-0.3,0.7-0.6,1-0.9c2.3-2.3,4.2-5,5.5-7.8l59,59
		L482.4,187.3z M325.4,32.9l54.3,40.2l4.8,14.7c-0.5,0.4-1,0.9-1.5,1.4c-2.3,2.3-4.2,4.9-5.5,7.8l-58-58L325.4,32.9z M412.1,402.6
		c0,2.4-0.9,4.7-2.6,6.4c-3.5,3.5-9.2,3.5-12.7,0c-1.7-1.7-2.6-4-2.6-6.4c0-2.4,0.9-4.7,2.6-6.4c1.7-1.7,4-2.6,6.4-2.6
		s4.7,0.9,6.4,2.6C411.2,398,412.1,400.2,412.1,402.6z M331.5,487.6l-6-6l40.2-54.3l16.1-5.2c0.3,0.3,0.6,0.7,0.9,1
		c2.3,2.3,5,4.2,7.8,5.5L331.5,487.6z M473.9,318.6l6,6l-40.2,54.3l-14.7,4.8c-0.4-0.5-0.9-1-1.4-1.5c-2.3-2.3-4.9-4.2-7.8-5.5
		L473.9,318.6z"/>
	<path d="M131.5,382.2c-0.8-0.8-1.7-1.4-2.6-1.9c-2.2-1.9-4.7-3.4-7.3-4.5l40.8-41.4c20.9-21,32.3-48.8,32.3-78.4
		s-11.5-57.4-32.3-78.4L123.3,138l7.3-7.3c0.8-0.8,1.4-1.7,1.9-2.6c1.9-2.2,3.4-4.7,4.5-7.3l41.4,40.8c21,20.9,48.8,32.3,78.4,32.3
		s57.4-11.5,78.4-32.3c3.9-3.9,3.9-10.2,0-14.1c-3.9-3.9-10.2-3.9-14.1,0c-35.5,35.3-93.2,35.3-128.7,0l-42.9-42.3l7.5-2.4
		c2-0.6,3.7-1.9,4.9-3.6l47.2-63.8c2.9-4,2.5-9.5-1-13L189.2,3.2c-3.9-3.9-10.2-3.9-14.1,0L89.6,88.6c-0.9,0.9-1.5,1.9-2,2.9
		c-4.2,5.3-6.2,11.7-6.2,18.2l-16.8,5.5c-2,0.6-3.7,1.9-4.9,3.6l-47.2,63.8c-2.9,4-2.5,9.5,1,13l19.2,19.2c1.9,1.9,4.4,2.9,7.1,2.9
		s5.2-1.1,7.1-2.9l62.5-62.5l39.1,39.6c35.3,35.5,35.3,93.2,0,128.7l-42.3,42.9l-2.5-7.6c-0.6-2-1.9-3.7-3.6-4.9l-63.8-47.2
		c-4-2.9-9.5-2.5-13,1L3.9,323.6c-3.9,3.9-3.9,10.2,0,14.1l85.4,85.4c0.9,0.9,1.9,1.5,2.9,2c5.2,4.1,11.5,6.2,17.9,6.2
		c0.1,0,0.2,0,0.3,0l5.5,16.8c0.6,2,1.9,3.7,3.6,4.9l63.8,47.2c1.8,1.3,3.9,2,5.9,2c2.6,0,5.1-1,7.1-2.9l19.2-19.2
		c1.9-1.9,2.9-4.4,2.9-7.1s-1.1-5.2-2.9-7.1L131.5,382.2z M101.4,109.4c0-2.4,0.9-4.7,2.6-6.4c1.8-1.8,4.1-2.6,6.4-2.6
		s4.6,0.9,6.4,2.6c1.7,1.7,2.6,4,2.6,6.4c0,2.4-0.9,4.7-2.6,6.4c-1.7,1.7-4,2.6-6.4,2.6s-4.7-0.9-6.4-2.6
		C102.3,114,101.4,111.8,101.4,109.4z M182.1,24.4l6,6l-40.2,54.3l-16.1,5.2c-0.3-0.3-0.6-0.7-0.9-1c-2.3-2.3-5-4.2-7.8-5.5
		L182.1,24.4z M39.7,193.4l-6-6l40.2-54.3l14.7-4.8c0.4,0.5,0.9,1,1.4,1.5c2.3,2.3,4.9,4.2,7.8,5.5L39.7,193.4z M103.8,396
		c1.7-1.7,4-2.6,6.4-2.6c2.4,0,4.7,0.9,6.4,2.6c1.7,1.7,2.6,4,2.6,6.4c0,2.4-0.9,4.7-2.6,6.4c-1.7,1.7-4,2.6-6.4,2.6
		s-4.7-0.9-6.4-2.6C100.3,405.2,100.3,399.5,103.8,396z M31.1,324.7l54.3,40.2l5.2,16.1c-0.3,0.3-0.7,0.6-1,0.9
		c-2.3,2.3-4.2,5-5.5,7.8l-59-59L31.1,324.7z M188.2,479.1l-54.3-40.2l-4.8-14.7c0.5-0.4,1-0.9,1.5-1.4c2.3-2.3,4.2-4.9,5.5-7.8
		l58,58L188.2,479.1z"/>
	<path d="M210.8,256c0,25.3,20.6,46,46,46c25.3,0,46-20.6,46-46s-20.6-46-46-46S210.8,230.7,210.8,256z M282.7,256
		c0,14.3-11.7,26-26,26c-14.3,0-26-11.7-26-26c0-14.3,11.7-26,26-26C271.1,230,282.7,241.7,282.7,256z"/>
	<path d="M350.8,142.5c2.6,0,5.1-1,7.1-2.9c3.9-3.9,3.9-10.2,0-14.1l-0.3-0.3c-3.9-3.9-10.2-3.9-14.1,0c-3.9,3.9-3.9,10.2,0,14.1
		l0.3,0.3C345.7,141.6,348.2,142.5,350.8,142.5z"/>
	<path d="M155.7,372.5c-3.9,3.9-3.9,10.2,0,14.1l0.3,0.3c2,2,4.5,2.9,7.1,2.9c2.6,0,5.1-1,7.1-2.9c3.9-3.9,3.9-10.2,0-14.1l-0.3-0.3
		C165.9,368.6,159.6,368.6,155.7,372.5z"/>
	<g>
		<g>
			<path class="st1" d="M907.3,417.6c-10.6,3.2-24,6.2-40.1,8.9c-16.1,2.7-33,4-50.7,4c-18.3,0-34.7-2.8-49.1-8.4
				c-14.5-5.6-26.8-13.6-37-24.1c-10.2-10.5-18-23.2-23.5-38.1c-5.5-14.9-8.2-31.6-8.2-50.2c0-18.3,2.3-34.9,6.9-49.8
				c4.6-14.9,11.3-27.7,20.1-38.3c8.9-10.6,19.6-18.8,32.3-24.6c12.7-5.8,27.3-8.6,43.8-8.6c11.2,0,21.1,1.3,29.7,4
				c8.6,2.7,15.9,5.6,22.1,8.9V90l53.6-8.9V417.6z M753.7,308.2c0,23.6,5.6,42.1,16.8,55.5c11.2,13.4,26.7,20.1,46.5,20.1
				c8.6,0,15.9-0.4,21.9-1.1c6-0.7,11-1.5,14.8-2.4V247.6c-4.7-3.2-11-6.3-18.8-9.1c-7.8-2.8-16.2-4.2-25-4.2
				c-19.5,0-33.7,6.6-42.7,19.9C758.2,267.5,753.7,285.5,753.7,308.2z"/>
			<path class="st1" d="M1085.3,241.4c-4.4-1.5-10.6-3-18.4-4.6c-7.8-1.6-16.9-2.4-27.2-2.4c-5.9,0-12.2,0.6-18.8,1.8
				c-6.6,1.2-11.3,2.2-13.9,3.1v185.5h-53.6V204.2c10.3-3.8,23.2-7.4,38.7-10.8c15.5-3.4,32.7-5.1,51.6-5.1c3.5,0,7.7,0.2,12.4,0.7
				c4.7,0.4,9.4,1,14.2,1.8c4.7,0.7,9.3,1.6,13.7,2.7c4.4,1,8,2,10.6,2.9L1085.3,241.4z"/>
			<path class="st1" d="M1319,308.7c0,18.3-2.7,35-8,50s-12.8,27.9-22.6,38.5c-9.7,10.6-21.5,18.9-35.2,24.8
				c-13.7,5.9-28.8,8.9-45.4,8.9c-16.5,0-31.6-3-45.1-8.9c-13.6-5.9-25.2-14.2-35-24.8c-9.7-10.6-17.3-23.5-22.8-38.5
				c-5.5-15-8.2-31.7-8.2-50c0-18.3,2.7-34.9,8.2-49.8c5.5-14.9,13.1-27.7,23-38.3c9.9-10.6,21.6-18.8,35.2-24.6
				c13.6-5.8,28.5-8.6,44.7-8.6c16.2,0,31.2,2.9,44.9,8.6c13.7,5.8,25.4,13.9,35.2,24.6c9.7,10.6,17.3,23.4,22.8,38.3
				C1316.2,273.8,1319,290.4,1319,308.7z M1264.1,308.7c0-23-4.9-41.2-14.8-54.7c-9.9-13.4-23.7-20.1-41.4-20.1
				c-17.7,0-31.5,6.7-41.4,20.1c-9.9,13.4-14.8,31.6-14.8,54.7c0,23.3,4.9,41.8,14.8,55.3c9.9,13.6,23.7,20.4,41.4,20.4
				c17.7,0,31.5-6.8,41.4-20.4C1259.1,350.4,1264.1,332,1264.1,308.7z"/>
			<path class="st1" d="M1352.1,200.7c10.3-2.9,23.7-5.8,40.3-8.4c16.5-2.7,34.8-4,54.9-4c18.9,0,34.7,2.6,47.4,7.7
				c12.7,5.2,22.8,12.4,30.3,21.7c7.5,9.3,12.8,20.5,15.9,33.6c3.1,13.1,4.6,27.5,4.6,43.2v130.1H1492V302.9
				c0-12.4-0.8-22.9-2.4-31.6c-1.6-8.7-4.3-15.8-8-21.2c-3.7-5.5-8.7-9.4-15-12c-6.3-2.5-14.1-3.8-23.2-3.8
				c-6.8,0-13.9,0.4-21.2,1.3c-7.4,0.9-12.8,1.6-16.4,2.2v186.8h-53.6V200.7z"/>
			<path class="st1" d="M1665.9,187.4c17.7,0,32.6,2.2,44.7,6.6c12.1,4.4,21.8,10.6,29,18.6c7.2,8,12.4,17.6,15.5,29
				c3.1,11.4,4.6,23.8,4.6,37.4v140.3c-8.3,1.8-20.7,3.9-37.4,6.4c-16.7,2.5-35.5,3.8-56.4,3.8c-13.9,0-26.6-1.3-38.1-4
				c-11.5-2.7-21.3-6.9-29.4-12.8c-8.1-5.9-14.5-13.6-19-23c-4.6-9.4-6.9-21.1-6.9-35c0-13.3,2.6-24.5,7.7-33.6
				c5.2-9.1,12.2-16.6,21-22.4s19.1-9.9,30.8-12.4c11.7-2.5,23.8-3.8,36.5-3.8c5.9,0,12.1,0.4,18.6,1.1c6.5,0.7,13.4,2,20.8,3.8
				v-8.9c0-6.2-0.7-12.1-2.2-17.7c-1.5-5.6-4.1-10.5-7.7-14.8c-3.7-4.3-8.6-7.6-14.6-10c-6.1-2.4-13.7-3.5-22.8-3.5
				c-12.4,0-23.8,0.9-34.1,2.7c-10.3,1.8-18.7,3.8-25.2,6.2l-6.6-43.4c6.8-2.4,16.7-4.7,29.7-7.1
				C1637.3,188.6,1651.2,187.4,1665.9,187.4z M1670.4,387c16.5,0,29.1-0.9,37.6-2.7V325c-3-0.9-7.2-1.8-12.8-2.7
				c-5.6-0.9-11.8-1.3-18.6-1.3c-5.9,0-11.9,0.4-17.9,1.3c-6.1,0.9-11.5,2.5-16.4,4.9c-4.9,2.4-8.8,5.7-11.7,10
				c-3,4.3-4.4,9.7-4.4,16.2c0,12.7,4,21.5,12,26.3C1646,384.6,1656.8,387,1670.4,387z"/>
			<path class="st1" d="M1862.9,125.4c0,10-3.2,18-9.7,23.9c-6.5,5.9-14.2,8.9-23,8.9c-9.1,0-17-2.9-23.5-8.9
				c-6.5-5.9-9.7-13.9-9.7-23.9c0-10.3,3.2-18.4,9.7-24.3c6.5-5.9,14.3-8.9,23.5-8.9c8.9,0,16.5,3,23,8.9
				C1859.7,107,1862.9,115.1,1862.9,125.4z M1857.2,424.6h-53.6V193.2h53.6V424.6z"/>
			<path class="st1" d="M2035.1,241.4c-4.4-1.5-10.6-3-18.4-4.6c-7.8-1.6-16.9-2.4-27.2-2.4c-5.9,0-12.2,0.6-18.8,1.8
				c-6.6,1.2-11.3,2.2-13.9,3.1v185.5h-53.6V204.2c10.3-3.8,23.2-7.4,38.7-10.8c15.5-3.4,32.7-5.1,51.6-5.1c3.5,0,7.7,0.2,12.4,0.7
				c4.7,0.4,9.4,1,14.2,1.8c4.7,0.7,9.3,1.6,13.7,2.7c4.4,1,8,2,10.6,2.9L2035.1,241.4z"/>
		</g>
		<path class="st1" d="M2101,391.9c0,10-3.2,18-9.7,23.9c-6.5,5.9-14.2,8.9-23,8.9c-9.1,0-17-2.9-23.5-8.9
			c-6.5-5.9-9.7-13.9-9.7-23.9c0-10.3,3.2-18.4,9.7-24.3c6.5-5.9,14.3-8.9,23.5-8.9c8.9,0,16.5,3,23,8.9
			C2097.8,373.4,2101,381.6,2101,391.9z"/>
	</g>
</g>
</svg>
